<svg width="512" height="512" viewBox="0 0 512 512" fill="none" xmlns="http://www.w3.org/2000/svg">
<g clip-path="url(#clip0)">
<path d="M381.496 304.328C384.055 304.328 386.559 303.023 387.984 300.675C450.238 198.066 375.023 65.7341 254.301 67.4138C174.84 68.5232 109.191 130.824 103.234 209.429C102.922 213.605 106.047 217.258 110.223 217.57C114.398 217.883 118.039 214.758 118.363 210.582C123.723 139.793 183.52 83.57 254.516 82.5817C363.43 81.0153 431.02 200.492 375.012 292.808C371.941 297.89 375.652 304.328 381.496 304.328V304.328Z" fill="black"/>
<path d="M323.313 126.14C313.513 119.23 302.798 113.91 291.466 110.32C287.208 108.976 282.661 111.336 281.313 115.594C279.962 119.851 282.325 124.398 286.583 125.746C296.329 128.832 305.548 133.414 313.989 139.363C340.47 158.039 356.278 188.558 356.278 221.008C356.278 276.301 311.188 320.711 256.392 320.711C176.165 320.711 128.243 229.621 174.935 163.414C193.966 136.422 225.47 120.336 259.013 121.152C263.497 121.223 267.185 117.719 267.29 113.254C267.396 108.789 263.86 105.082 259.396 104.976C220.38 104.07 183.845 122.703 161.712 154.086C107.497 230.973 163.048 336.887 256.392 336.887C320.001 336.887 372.458 285.336 372.458 221.008C372.458 183.305 354.087 147.844 323.313 126.14V126.14Z" fill="black"/>
<path d="M256.484 45.9688C260.953 45.9688 264.574 42.3438 264.574 37.8789V8.08984C264.574 3.62109 260.953 0 256.484 0C252.02 0 248.395 3.62109 248.395 8.08984V37.8789C248.395 42.3438 252.02 45.9688 256.484 45.9688Z" fill="black"/>
<path d="M156.677 66.7893C158.911 70.6604 163.856 71.9846 167.728 69.7502C171.595 67.5158 172.923 62.5705 170.688 58.6994L155.794 32.9025C153.56 29.0354 148.614 27.7111 144.743 29.9416C140.876 32.176 139.548 37.1213 141.782 40.9924L156.677 66.7893Z" fill="black"/>
<path d="M65.9033 122.793C93.9189 138.968 92.8057 138.773 95.7392 138.773C103.981 138.773 106.942 127.808 99.79 123.675L73.9932 108.781C70.1221 106.55 65.1767 107.875 62.9424 111.742C60.708 115.613 62.0361 120.558 65.9033 122.793Z" fill="black"/>
<path d="M78.9688 223.488C78.9688 219.02 75.3438 215.398 70.8789 215.398H41.0898C36.6211 215.398 33 219.02 33 223.488C33 227.953 36.6211 231.574 41.0898 231.574H70.8789C75.3438 231.574 78.9688 227.953 78.9688 223.488Z" fill="black"/>
<path d="M102.751 312.246C100.517 308.375 95.5713 307.051 91.7002 309.285L65.9033 324.18C62.0361 326.414 60.708 331.359 62.9424 335.23C65.1767 339.101 70.126 340.422 73.9932 338.191L99.79 323.297C103.657 321.062 104.985 316.113 102.751 312.246V312.246Z" fill="black"/>
<path d="M155.794 414.07L170.688 388.273C172.923 384.402 171.595 379.457 167.728 377.223C163.856 374.988 158.911 376.312 156.677 380.183L141.782 405.98C139.548 409.848 140.876 414.797 144.743 417.031C148.61 419.262 153.56 417.941 155.794 414.07Z" fill="black"/>
<path d="M345.246 377.222C341.375 379.457 340.051 384.406 342.285 388.273L357.18 414.07C358.676 416.664 361.394 418.117 364.191 418.117C370.359 418.117 374.316 411.394 371.191 405.98L356.297 380.183C354.062 376.312 349.113 374.992 345.246 377.222V377.222Z" fill="black"/>
<path d="M447.07 324.18L421.273 309.285C417.402 307.051 412.457 308.375 410.223 312.246C407.988 316.113 409.312 321.062 413.183 323.297L438.98 338.191C442.848 340.422 447.797 339.101 450.031 335.23C452.265 331.359 450.937 326.414 447.07 324.18V324.18Z" fill="black"/>
<path d="M471.883 215.398H442.094C437.625 215.398 434.004 219.02 434.004 223.488C434.004 227.953 437.625 231.574 442.094 231.574H471.883C476.352 231.574 479.973 227.953 479.973 223.488C479.973 219.02 476.352 215.398 471.883 215.398V215.398Z" fill="black"/>
<path d="M417.235 138.773C420.114 138.773 418.903 139.058 447.071 122.793C450.938 120.558 452.266 115.613 450.032 111.742C447.798 107.875 442.848 106.55 438.981 108.781L413.184 123.675C406.04 127.804 408.989 138.773 417.235 138.773V138.773Z" fill="black"/>
<path d="M349.281 70.8358C352.078 70.8358 354.797 69.3827 356.297 66.7889L371.191 40.9921C373.422 37.121 372.097 32.1756 368.23 29.9413C364.359 27.7069 359.414 29.0311 357.179 32.9022L342.285 58.6991C339.168 64.1014 343.093 70.8358 349.281 70.8358V70.8358Z" fill="black"/>
<path d="M295.598 419.851C330.523 358.16 329.832 356.718 339.988 350.121C350.504 343.308 360.18 335.207 368.742 326.047C371.605 322.984 371.445 318.191 368.391 315.328C365.336 312.468 360.535 312.629 357.672 315.683C336.137 338.679 325.074 336.972 314.605 355.5C312.902 358.515 262.137 448.183 262.137 448.183C259.641 452.578 253.332 452.582 250.832 448.183C250.777 448.082 199.922 358.246 198.363 355.492C194.281 348.273 188.363 342.011 181.266 337.422C147.059 315.258 124.418 279.484 119.152 239.289C118.605 235.133 114.801 232.211 110.648 232.746C106.492 233.293 103.57 237.105 104.113 241.261C109.961 285.875 135.078 325.562 173.016 350.14C183.258 356.781 182.832 358.836 217.375 419.851C152.895 423.988 94.6992 438.59 94.6992 465.304C94.6992 527.57 418.27 527.562 418.27 465.304C418.27 438.59 360.078 423.988 295.598 419.851V419.851ZM256.484 495.801C160.387 495.801 110.879 474.879 110.879 465.304C110.879 462.785 118.027 453.828 149.777 445.859C170.953 440.539 197.414 437 226.254 435.554L237.637 455.656C245.922 470.308 267.035 470.332 275.332 455.656L286.719 435.554C315.559 437 342.02 440.539 363.191 445.859C394.941 453.828 402.09 462.785 402.09 465.304C402.09 474.918 352.496 495.801 256.484 495.801Z" fill="black"/>
</g>
<defs>
<clipPath id="clip0">
<rect width="512" height="512" fill="white"/>
</clipPath>
</defs>
</svg>
