<svg width="512" height="512" viewBox="0 0 512 512" fill="none" xmlns="http://www.w3.org/2000/svg">
<path d="M507.554 107.638L507.599 107.914L507.688 108.179C507.916 108.864 508.044 109.608 508.162 110.599C508.192 110.969 508.255 111.287 508.314 111.534C508.376 111.792 508.453 112.039 508.484 112.142C508.49 112.162 508.495 112.181 508.5 112.197V399.813C508.494 399.833 508.488 399.857 508.48 399.883C508.451 399.981 508.376 400.226 508.316 400.471C508.259 400.707 508.193 401.024 508.163 401.395C508.046 402.372 507.919 403.094 507.688 403.789L507.598 404.058L507.553 404.337C505.34 418.019 494.044 428.5 480 428.5H32C17.9546 428.5 6.6595 418.017 4.4469 404.368L4.40171 404.089L4.31239 403.821C4.08124 403.128 3.95449 402.407 3.8377 401.433C3.80872 401.067 3.74694 400.751 3.68969 400.509C3.63569 400.281 3.57059 400.059 3.53515 399.938L3.524 399.9C3.51437 399.867 3.50645 399.839 3.5 399.816V112.197C3.50476 112.181 3.5102 112.162 3.51639 112.142C3.51954 112.131 3.52318 112.119 3.52723 112.106C3.56264 111.989 3.63001 111.765 3.68588 111.534C3.74545 111.287 3.80841 110.969 3.8377 110.599C3.95641 109.608 4.08388 108.864 4.31239 108.179L4.40075 107.914L4.44593 107.638C6.68905 93.9492 17.957 83.5 32 83.5H480C494.043 83.5 505.311 93.9492 507.554 107.638ZM470.998 114.822L479.619 108.5H468.928H43.072H32.3807L41.0022 114.822L218.372 244.894C218.512 245.017 218.654 245.121 218.791 245.209L253.93 270.982L256 272.501L258.07 270.982L293.398 245.062L293.398 245.062L470.998 114.822ZM34.0697 140.762L28.5 136.677V143.584V368.448V375.354L34.0693 371.271L187.413 258.855L191.263 256.032L187.414 253.21L34.0697 140.762ZM41.0028 397.177L32.3767 403.5H43.072H468.928H479.623L470.997 397.177L301.653 273.049L299.583 271.532L297.514 273.05L263.402 298.074L263.393 298.081C261.203 299.698 258.61 300.5 256 300.5C253.39 300.5 250.797 299.698 248.607 298.081L248.598 298.074L214.486 273.05L212.417 271.532L210.347 273.049L41.0028 397.177ZM477.931 371.271L483.5 375.354V368.448V143.584V136.677L477.93 140.762L324.586 253.21L320.737 256.032L324.587 258.855L477.931 371.271Z" fill="black" stroke="white" stroke-width="7"/>
</svg>
