<svg width="474" height="474" viewBox="0 0 474 474" fill="none" xmlns="http://www.w3.org/2000/svg">
<g clip-path="url(#clip0)">
<path d="M372.653 295.237L372.669 295.254L372.685 295.27L427.585 350.37L427.591 350.376L427.597 350.382C437.292 359.981 442.256 371.264 442.256 382.906C442.256 394.463 437.378 405.864 427.854 415.773L427.849 415.779C423.586 420.239 419.217 424.51 414.931 428.596L414.924 428.603L414.917 428.61C414.445 429.067 413.973 429.523 413.503 429.978C407.736 435.554 402.136 440.968 397.228 446.914L397.047 447.134L397.047 447.134C397.013 447.171 396.976 447.212 396.938 447.257C396.888 447.316 396.832 447.386 396.774 447.467C382.088 463.33 363.413 471.306 341.056 471.306C339.131 471.306 336.997 471.21 334.896 471.11C301.103 468.938 270.77 456.219 247.835 445.35C187.967 416.409 135.552 375.336 91.9776 323.306C56.0244 280.083 31.9847 239.825 15.9003 196.437L15.9003 196.437C9.32959 178.716 0.896045 151.947 3.24717 123.318C4.79682 105.807 11.8406 90.757 24.224 78.3736L24.2317 78.3658L58.224 44.0735L58.2317 44.0657L58.324 43.9735L58.4058 43.8917C68.0045 34.6845 79.1977 29.9058 90.6562 29.9058C102.115 29.9058 113.104 34.6844 122.398 43.8827L122.429 43.9133L122.461 43.9428C128.901 49.8881 135.156 56.2409 141.146 62.4304C144.17 65.6548 147.388 68.8732 150.474 71.9589L150.488 71.9735L177.788 99.2735C187.9 109.385 192.806 120.824 192.806 132.106C192.806 143.387 187.9 154.827 177.788 164.938C176.38 166.346 174.974 167.778 173.576 169.2L173.573 169.204C172.172 170.63 170.779 172.047 169.388 173.438L169.383 173.444L169.377 173.45C168.663 174.173 167.948 174.899 167.231 175.626C160.5 182.456 153.627 189.431 146.269 196.161L144.932 197.384L145.678 199.035C151.885 212.772 160.408 226.247 172.996 242.157L173.006 242.17L173.017 242.184C198.96 274.059 226.056 298.751 255.916 317.716L255.927 317.723L255.938 317.73C258.936 319.591 262.422 321.334 265.973 323.109L266.003 323.124C266.008 323.127 266.014 323.129 266.019 323.132C266.887 323.584 267.754 324.028 268.621 324.473C270.295 325.332 271.973 326.193 273.671 327.107L275.306 327.987L276.621 326.676L308.221 295.176L308.224 295.174C317.935 285.463 329.124 280.506 340.656 280.506C352.278 280.506 363.352 285.553 372.653 295.237ZM412.063 400.483L410.288 398.772C410.851 398.186 411.383 397.6 411.883 397.015C412.003 397.126 412.117 397.253 412.22 397.398C412.573 397.895 412.681 398.425 412.681 398.843C412.681 399.603 412.343 400.126 412.174 400.347C412.138 400.395 412.101 400.44 412.063 400.483ZM402.064 410.593C405.509 407.244 408.828 404.017 412.073 400.523C417.428 394.953 420.408 389.092 420.394 383C420.379 376.891 417.356 371.118 411.919 365.733C411.917 365.732 411.916 365.73 411.915 365.729L356.824 310.638L356.823 310.637L356.823 310.637L356.822 310.636L356.822 310.636L356.821 310.635L356.82 310.635L356.82 310.634L356.819 310.633L356.819 310.633L356.818 310.632L356.818 310.632L356.817 310.631L356.817 310.631L356.816 310.63L356.815 310.629L356.815 310.629L356.814 310.628L356.814 310.628L356.813 310.627L356.813 310.627L356.812 310.626L356.812 310.626L356.811 310.625L356.811 310.625L356.81 310.624L356.809 310.624L356.809 310.623L356.808 310.622L356.808 310.622L356.807 310.621L356.807 310.621L356.806 310.62L356.806 310.62L356.805 310.619L356.805 310.619L356.804 310.618L356.804 310.618L356.803 310.617L356.803 310.617L356.802 310.616L356.802 310.616L356.801 310.615L356.801 310.615L356.8 310.614L356.8 310.614L356.799 310.613L356.799 310.613L356.798 310.612L356.798 310.612L356.797 310.611L356.797 310.611L356.796 310.61L356.796 310.61L356.795 310.609L356.795 310.609L356.794 310.609L356.794 310.608L356.794 310.608L356.793 310.607L356.793 310.607L356.792 310.606L356.792 310.606L356.791 310.605L356.791 310.605L356.79 310.604L356.79 310.604L356.789 310.603L356.789 310.603L356.789 310.603L356.788 310.602L356.788 310.602L356.787 310.601L356.787 310.601L356.786 310.6L356.786 310.6L356.785 310.599L356.785 310.599L356.785 310.599L356.784 310.598L356.784 310.598L356.783 310.597L356.783 310.597L356.782 310.596L356.782 310.596L356.782 310.596L356.781 310.595L356.781 310.595L356.78 310.594L356.78 310.594L356.779 310.593L356.779 310.593L356.779 310.593L356.778 310.592L356.778 310.592L356.777 310.591L356.777 310.591L356.777 310.591L356.776 310.59L356.776 310.59L356.775 310.589L356.775 310.589L356.775 310.589L356.774 310.588L356.774 310.588L356.773 310.587L356.773 310.587L356.773 310.587L356.772 310.586L356.772 310.586L356.771 310.585L356.771 310.585L356.771 310.585L356.77 310.584L356.77 310.584L356.769 310.583L356.769 310.583L356.769 310.583L356.768 310.582L356.768 310.582L356.768 310.582L356.767 310.581L356.767 310.581L356.766 310.58L356.766 310.58L356.766 310.58L356.765 310.579L356.765 310.579L356.765 310.579L356.764 310.578L356.764 310.578L356.764 310.578L356.763 310.577L356.763 310.577L356.762 310.576L356.762 310.576L356.762 310.576L356.761 310.575L356.761 310.575L356.761 310.575L356.76 310.574L356.76 310.574L356.76 310.574L356.759 310.573L356.759 310.573L356.759 310.573L356.758 310.572L356.758 310.572L356.758 310.572L356.757 310.571L356.757 310.571L356.756 310.57L356.756 310.57L356.756 310.57L356.755 310.569L356.755 310.569L356.755 310.569L356.754 310.568L356.754 310.568L356.754 310.568L356.753 310.567L356.753 310.567L356.753 310.567L356.752 310.566L356.752 310.566L356.752 310.566L356.751 310.565L356.751 310.565L356.751 310.565L356.75 310.564L356.75 310.564L356.75 310.564L356.749 310.563L356.749 310.563L356.749 310.563L356.749 310.562L356.748 310.562L356.748 310.562L356.748 310.562L356.747 310.561L356.747 310.561L356.747 310.561L356.746 310.56L356.746 310.56L356.746 310.56L356.745 310.559L356.745 310.559L356.745 310.559L356.744 310.558L356.744 310.558L356.744 310.558L356.743 310.557L356.743 310.557L356.743 310.557L356.742 310.557L356.742 310.556L356.742 310.556L356.742 310.556L356.741 310.555L356.741 310.555L356.741 310.555L356.74 310.554L356.74 310.554L356.74 310.554L356.739 310.553L356.739 310.553L356.739 310.553L356.738 310.553L356.738 310.552L356.738 310.552L356.738 310.552L356.737 310.551L356.737 310.551L356.737 310.551L356.736 310.55L356.736 310.55L356.736 310.55L356.736 310.549L356.735 310.549L356.735 310.549L356.735 310.549L356.734 310.548L356.734 310.548L356.734 310.548L356.733 310.547L356.733 310.547L356.733 310.547L356.733 310.547L356.732 310.546L356.732 310.546L356.732 310.546L356.731 310.545L356.731 310.545L356.731 310.545L356.73 310.544L356.73 310.544L356.73 310.544L356.73 310.544L356.729 310.543L356.729 310.543L356.729 310.543L356.728 310.542L356.728 310.542L356.728 310.542L356.727 310.542L356.727 310.541L356.727 310.541L356.727 310.541L356.726 310.54L356.726 310.54L356.726 310.54L356.725 310.539L356.725 310.539L356.725 310.539L356.725 310.539L356.724 310.538L356.724 310.538L356.724 310.538L356.723 310.537L356.723 310.537L356.723 310.537L356.723 310.537L356.722 310.536L356.722 310.536L356.722 310.536L356.721 310.535L356.721 310.535L356.721 310.535L356.72 310.534L356.72 310.534L356.72 310.534L356.72 310.534L356.719 310.533L356.719 310.533L356.719 310.533L356.718 310.532L356.718 310.532L356.718 310.532L356.717 310.532L356.717 310.531L356.717 310.531L356.717 310.531L356.716 310.53L356.716 310.53L356.716 310.53L356.715 310.529L356.715 310.529L356.715 310.529L356.715 310.529L356.714 310.528L356.714 310.528L356.714 310.528L356.713 310.527L356.713 310.527L356.713 310.527L356.712 310.526L356.712 310.526L356.712 310.526L356.712 310.526L356.711 310.525L356.711 310.525L356.711 310.525L356.71 310.524L356.71 310.524L356.71 310.524L356.709 310.523L356.709 310.523L356.709 310.523L356.709 310.523L356.708 310.522L356.708 310.522L356.708 310.522L356.707 310.521L356.707 310.521L356.707 310.521L356.706 310.52L356.706 310.52L356.706 310.52L356.705 310.519L356.705 310.519L356.705 310.519L356.705 310.519L356.704 310.518L356.704 310.518L356.704 310.518L356.703 310.517L356.703 310.517L356.703 310.517L356.702 310.516L356.702 310.516L356.702 310.516L356.701 310.515L356.701 310.515L356.701 310.515L356.7 310.514L356.7 310.514L356.7 310.514L356.699 310.513L356.699 310.513L356.699 310.513L356.698 310.512L356.698 310.512L356.698 310.512L356.698 310.512L356.697 310.511L356.697 310.511L356.697 310.511L356.696 310.51L356.696 310.51L356.696 310.51L356.695 310.509L356.695 310.509L356.695 310.509L356.694 310.508L356.694 310.508L356.694 310.508L356.693 310.507L356.693 310.507L356.693 310.507L356.692 310.506L356.692 310.506L356.691 310.505L356.691 310.505L356.691 310.505L356.69 310.504L356.69 310.504L356.69 310.504L356.689 310.503L356.689 310.503L356.689 310.503L356.688 310.502L356.688 310.502L356.688 310.502L356.687 310.501L356.687 310.501L356.687 310.501L356.686 310.5L356.686 310.5L356.686 310.5L356.685 310.499L356.685 310.499L356.684 310.498L356.684 310.498L356.684 310.498L356.683 310.497L356.683 310.497L356.683 310.497L356.682 310.496L356.682 310.496L356.681 310.496L356.681 310.495L356.681 310.495L356.68 310.494L356.68 310.494L356.68 310.494L356.679 310.493L356.679 310.493L356.678 310.492L356.678 310.492L356.678 310.492L356.677 310.491L356.677 310.491L356.677 310.491L356.676 310.49L356.676 310.49L356.675 310.489L356.675 310.489L356.675 310.489L356.674 310.488L356.674 310.488L356.673 310.487L356.673 310.487L356.673 310.487L356.672 310.486L356.672 310.486L356.671 310.485L356.671 310.485L356.671 310.485L356.67 310.484L356.67 310.484L356.669 310.483L356.669 310.483L356.669 310.483L356.668 310.482L356.668 310.482L356.667 310.481L356.667 310.481L356.666 310.48L356.666 310.48L356.666 310.48L356.665 310.479L356.665 310.479L356.664 310.478L356.664 310.478C353.374 306.883 347.668 302.406 340.456 302.406C333.118 302.406 327.1 307.126 323.588 310.638L289.388 344.838C287.732 346.494 283.169 351.006 275.956 351.006C273.094 351.006 270.274 350.32 267.174 348.77C267.1 348.732 267.002 348.674 266.781 348.536L266.753 348.518C266.594 348.419 266.354 348.269 266.09 348.129C263.111 346.288 259.659 344.562 256.142 342.804L256.074 342.77C252.059 340.762 247.971 338.716 243.995 336.194L243.992 336.193C212.155 316.059 183.252 289.752 155.797 255.93L155.716 255.83L155.629 255.743C140.599 236.645 130.771 220.695 123.8 203.832L123.678 203.465L123.534 203.034C122.673 200.305 121.951 197.188 122.34 193.831C122.721 190.534 124.2 186.797 128.124 182.874L128.411 182.587L128.423 182.562C128.466 182.524 128.514 182.48 128.564 182.432C137.304 174.594 145.331 166.566 153.719 157.979C155.66 156.104 157.573 154.168 159.478 152.242C160.428 151.281 161.376 150.322 162.324 149.374C167.862 143.836 171.006 138.137 171.006 132.106C171.006 126.075 167.862 120.376 162.324 114.838L135.038 87.5518C133.447 85.9112 131.857 84.2963 130.287 82.7014L130.25 82.6644C128.662 81.0507 127.094 79.4579 125.552 77.8663C119.458 71.5722 113.631 65.6441 107.494 59.9082L107.374 59.788L107.224 59.638C103.869 56.2825 98.1595 51.9058 90.8562 51.9058C84.913 51.9058 79.1312 54.8145 73.9451 59.6831L73.9164 59.7101L73.8884 59.738L39.7884 93.838C31.0703 102.556 26.3153 112.807 25.2653 125.093L25.2646 125.102C23.7249 143.886 27.235 163.667 36.6126 188.776C51.8297 229.892 74.7915 268.132 109.032 309.402L109.04 309.411C150.562 358.976 200.542 398.099 257.467 425.656L257.478 425.661C278.232 435.587 306.19 447.367 336.39 449.3C337.973 449.406 339.642 449.406 341.116 449.406H341.156C357.418 449.406 369.989 444.04 380.582 432.713L380.623 432.67L380.662 432.624C386.774 425.428 393.296 419.001 399.782 412.815L399.792 412.805L399.803 412.794C400.563 412.052 401.316 411.32 402.064 410.593Z" fill="black" stroke="white" stroke-width="5"/>
<path d="M256.471 110.241L256.471 110.241L256.457 110.238C250.49 109.271 246.553 103.526 247.618 97.5443C248.676 91.5998 254.291 87.5952 260.347 88.5723C291.527 93.8859 319.954 108.639 342.489 131.174C365.024 153.709 379.777 182.135 385.09 213.316C386.068 219.375 382.07 225.039 376.099 226.031C376.038 226.039 375.979 226.046 375.922 226.054C375.193 226.145 374.71 226.206 374.157 226.206C368.839 226.206 364.215 222.45 363.323 217.095L363.32 217.083C358.733 190.372 346.189 166.103 326.824 146.738C307.464 127.378 283.194 114.728 256.471 110.241Z" fill="black" stroke="white" stroke-width="5"/>
<path d="M470.792 209.426L470.793 209.435L470.795 209.444C471.848 215.36 467.795 221.026 461.913 221.929C461.847 221.937 461.783 221.945 461.722 221.953C460.992 222.045 460.51 222.106 459.956 222.106C454.638 222.106 450.015 218.35 449.122 212.995L449.121 212.988C441.133 165.872 418.887 122.901 384.724 88.738L384.721 88.7354C350.563 54.6784 307.598 32.3314 260.482 24.3423C254.439 23.2769 250.452 17.6649 251.421 11.6251C252.496 5.64318 258.134 1.61939 264.018 2.66709L264.027 2.6687L264.036 2.67025C315.722 11.4826 362.752 35.837 400.188 73.2736C437.625 110.71 461.979 157.74 470.792 209.426Z" fill="black" stroke="white" stroke-width="5"/>
</g>
<defs>
<clipPath id="clip0">
<rect width="473.806" height="473.806" fill="white"/>
</clipPath>
</defs>
</svg>
